<svg width="120" height="131" viewBox="0 0 120 131" fill="none" xmlns="http://www.w3.org/2000/svg">
<path d="M60.1148 0C69.6189 4.49747e-05 76.7483 2.61252 81.5004 7.84194C86.3712 13.0713 90.4101 20.3219 93.6177 29.5919L116.962 96.4461C120.289 105.835 120.883 113.623 118.745 119.803C116.725 125.864 111.675 129.488 103.597 130.677C97.0632 131.508 91.3608 130.735 86.49 128.359C81.7379 125.982 78.8857 122.119 77.9353 116.771C77.2225 113.205 77.1046 110.234 77.5798 107.857C78.1738 105.48 78.7081 103.578 79.1833 102.152C79.4428 101.286 79.5084 100.452 79.3897 99.6495L111.413 84.8337L74.2484 67.6376L60.4976 21.163L46.7444 67.6376L9.58182 84.8337L40.447 99.1148C40.3041 100.08 40.4438 101.092 40.8672 102.152C41.3424 103.578 41.819 105.48 42.2942 107.857C42.7694 110.234 42.7092 113.205 42.1152 116.771C41.1648 122.119 38.3728 125.982 33.7395 128.359C29.1062 130.735 23.522 131.508 16.988 130.677C9.029 129.488 3.86066 125.864 1.48452 119.803C-0.89155 113.623 -0.414944 105.835 2.91156 96.4461L26.4328 29.5919C28.5711 23.4121 31.0072 18.1238 33.7395 13.7265C36.5906 9.32917 40.0954 5.94109 44.2533 3.56406C48.5302 1.18703 53.8182 0 60.1148 0Z" fill="black"/>
<path d="M59.5621 57.5345C59.8843 56.6639 61.1157 56.6639 61.4379 57.5345L68.5782 76.831C68.6795 77.1047 68.8953 77.3205 69.169 77.4218L88.4655 84.5621C89.3361 84.8843 89.3361 86.1157 88.4655 86.4379L69.169 93.5782C68.8953 93.6795 68.6795 93.8953 68.5782 94.169L61.4379 113.465C61.1157 114.336 59.8843 114.336 59.5621 113.465L52.4218 94.169C52.3205 93.8953 52.1047 93.6795 51.831 93.5782L32.5345 86.4379C31.6639 86.1157 31.6639 84.8843 32.5345 84.5621L51.831 77.4218C52.1047 77.3205 52.3205 77.1047 52.4218 76.831L59.5621 57.5345Z" fill="#72AAD3"/>
<circle cx="60.5632" cy="124.373" r="6.5" fill="#EEB965"/>
</svg>
